<svg xmlns="http://www.w3.org/2000/svg" viewBox="-86 -1090 2628 1709" width="2628" height="1709"><path d="M255.0 14.0Q189.0 14.0 139.5 -19.5Q90.0 -53.0 62.0 -115.5Q34.0 -178.0 34.0 -265.0Q34.0 -345.0 58.0 -407.0Q82.0 -469.0 129.5 -504.5Q177.0 -540.0 247.0 -540.0Q297.0 -540.0 331.5 -522.0Q366.0 -504.0 389.0 -468.0Q412.0 -432.0 426.0 -377.0H451.0Q444.0 -411.0 438.0 -441.5Q432.0 -472.0 428.5 -498.5Q425.0 -525.0 425.0 -545.0V-720.0H587.0V-258.0V0.0H455.0L453.0 -156.0H431.0Q420.0 -96.0 396.5 -58.5Q373.0 -21.0 337.5 -3.5Q302.0 14.0 255.0 14.0ZM313.0 -116.0Q344.0 -116.0 365.5 -129.5Q387.0 -143.0 400.0 -164.0Q413.0 -185.0 419.0 -209.0Q425.0 -233.0 425.0 -254.0V-275.0Q425.0 -294.0 420.0 -313.0Q415.0 -332.0 405.5 -350.0Q396.0 -368.0 382.0 -382.0Q368.0 -396.0 349.5 -404.0Q331.0 -412.0 309.0 -412.0Q276.0 -412.0 252.5 -394.0Q229.0 -376.0 216.5 -343.0Q204.0 -310.0 204.0 -265.0Q204.0 -220.0 217.0 -186.5Q230.0 -153.0 255.0 -134.5Q280.0 -116.0 313.0 -116.0ZM693.0 0.0V-528.0H854.0V0.0ZM1174.0 185.0Q1086.0 185.0 1029.5 171.5Q973.0 158.0 947.0 131.5Q921.0 105.0 921.0 67.0Q921.0 21.0 957.5 -8.0Q994.0 -37.0 1065.0 -41.0V-62.0Q1010.0 -62.0 980.5 -73.0Q951.0 -84.0 951.0 -114.0Q951.0 -142.0 980.0 -165.0Q1009.0 -188.0 1076.0 -201.0V-222.0Q1015.0 -227.0 979.0 -262.5Q943.0 -298.0 943.0 -356.0Q943.0 -405.0 971.0 -445.5Q999.0 -486.0 1055.0 -510.5Q1111.0 -535.0 1195.0 -535.0H1469.0V-414.0L1302.0 -436.0V-412.0Q1367.0 -403.0 1395.0 -382.0Q1423.0 -361.0 1423.0 -323.0Q1423.0 -283.0 1395.5 -252.0Q1368.0 -221.0 1318.0 -203.5Q1268.0 -186.0 1199.0 -186.0Q1187.0 -186.0 1172.5 -187.0Q1158.0 -188.0 1119.0 -192.0Q1103.0 -178.0 1094.0 -168.5Q1085.0 -159.0 1085.0 -151.0Q1085.0 -145.0 1090.0 -141.0Q1095.0 -137.0 1104.5 -135.5Q1114.0 -134.0 1125.0 -134.0H1286.0Q1306.0 -134.0 1338.5 -131.5Q1371.0 -129.0 1403.5 -116.0Q1436.0 -103.0 1458.5 -74.0Q1481.0 -45.0 1481.0 9.0Q1481.0 68.0 1448.0 107.5Q1415.0 147.0 1347.0 166.0Q1279.0 185.0 1174.0 185.0ZM1195.0 57.0Q1253.0 57.0 1285.0 51.0Q1317.0 45.0 1329.5 32.0Q1342.0 19.0 1342.0 0.0Q1342.0 -18.0 1335.0 -28.5Q1328.0 -39.0 1317.0 -43.0Q1306.0 -47.0 1294.5 -48.0Q1283.0 -49.0 1275.0 -49.0H1146.0Q1109.0 -49.0 1091.5 -31.5Q1074.0 -14.0 1074.0 9.0Q1074.0 28.0 1086.0 38.5Q1098.0 49.0 1124.5 53.0Q1151.0 57.0 1195.0 57.0ZM1188.0 -266.0Q1231.0 -266.0 1252.5 -289.0Q1274.0 -312.0 1274.0 -347.0Q1274.0 -385.0 1252.0 -409.5Q1230.0 -434.0 1189.0 -434.0Q1148.0 -434.0 1125.0 -409.5Q1102.0 -385.0 1102.0 -347.0Q1102.0 -324.0 1112.0 -305.5Q1122.0 -287.0 1141.0 -276.5Q1160.0 -266.0 1188.0 -266.0ZM1550.0 0.0V-528.0H1711.0V0.0ZM1858.0 0.0V-327.0H1777.0V-444.0L1921.0 -438.0V-457.0Q1883.0 -464.0 1858.5 -482.5Q1834.0 -501.0 1823.0 -526.0Q1812.0 -551.0 1812.0 -580.0Q1812.0 -624.0 1835.0 -655.5Q1858.0 -687.0 1900.0 -704.0Q1942.0 -721.0 1998.0 -721.0Q2047.0 -721.0 2087.0 -709.5Q2127.0 -698.0 2151.0 -681.0L2142.0 -536.0Q2117.0 -553.0 2085.5 -564.0Q2054.0 -575.0 2027.0 -575.0Q1999.0 -575.0 1980.0 -560.5Q1961.0 -546.0 1961.0 -513.0Q1961.0 -487.0 1972.5 -474.0Q1984.0 -461.0 2001.0 -456.5Q2018.0 -452.0 2035.0 -452.0H2151.0V-327.0H2015.0V0.0ZM2254.0 0.0V-528.0H2415.0V0.0Z" fill="#0A1340"/><rect x="685.5" y="-778.0" width="176.0" height="176.0" rx="40.0" fill="#0064F8"/><rect x="1542.5" y="-874.0" width="176.0" height="176.0" rx="40.0" fill="#0064F8"/><rect x="2246.5" y="-970.0" width="176.0" height="176.0" rx="40.0" fill="#0064F8"/><path d="M45.19641182988153 458.4926276314668V352.6356430580414H67.18209324128526V458.4926276314668ZM56.18925253558339 334.92495525441063Q49.06426318929515 334.92495525441063 45.39998295406119 331.9731739538055Q41.735702718827234 329.02139265320034 41.735702718827234 323.1178300519901Q41.735702718827234 317.4178385749595 45.39998295406119 314.36427171226455Q49.06426318929515 311.31070484956956 56.18925253558339 311.31070484956956Q63.517813006051306 311.31070484956956 67.18209324128526 314.36427171226455Q70.84637347651922 317.4178385749595 70.84637347651922 323.1178300519901Q70.84637347651922 329.02139265320034 67.18209324128526 331.9731739538055Q63.517813006051306 334.92495525441063 56.18925253558339 334.92495525441063ZM97.92133299241456 458.4926276314668V393.34986789397425V352.6356430580414H117.05701866530299L115.835591920225 385.61416517514704H119.2963010312793Q122.14629676979459 373.3998977243672 126.9302181880167 365.56240944345006Q131.7141396062388 357.724921162533 139.14448563879654 353.85706980311943Q146.5748316713543 349.9892184437058 156.54981675615784 349.9892184437058Q174.26050455978861 349.9892184437058 183.52299070996335 362.610628142845Q192.7854768601381 375.23203784198415 192.7854768601381 401.0855706128015V458.4926276314668H170.392653200375V403.3248529787778Q170.392653200375 385.61416517514704 165.09980397170375 377.36953464587066Q159.80695474303246 369.1249041165942 149.22125628568995 369.1249041165942Q140.06055569760505 369.1249041165942 133.64806528594562 374.9266811557146Q127.2355748742862 380.72845819483507 123.7748657632319 390.0927299070996Q120.31415665217762 399.4570016193642 119.9070144038183 410.4498423250661V458.4926276314668ZM221.6925764936504 458.4926276314668V393.34986789397425V352.6356430580414H240.82826216653882L239.60683542146083 385.61416517514704H243.06754453251511Q245.91754027103042 373.3998977243672 250.70146168925254 365.56240944345006Q255.48538310747463 357.724921162533 262.9157291400324 353.85706980311943Q270.34607517259013 349.9892184437058 280.3210602573937 349.9892184437058Q298.0317480610245 349.9892184437058 307.2942342111992 362.610628142845Q316.5567203613739 375.23203784198415 316.5567203613739 401.0855706128015V458.4926276314668H294.16389670161084V403.3248529787778Q294.16389670161084 385.61416517514704 288.87104747293955 377.36953464587066Q283.57819824426826 369.1249041165942 272.99249978692575 369.1249041165942Q263.8317991988409 369.1249041165942 257.4193087871814 374.9266811557146Q251.00681837552202 380.72845819483507 247.54610926446773 390.0927299070996Q244.08540015341345 399.4570016193642 243.67825790505412 410.4498423250661V458.4926276314668ZM391.67446518367 461.1390522458024Q376.40663087019516 461.1390522458024 364.5995056677747 454.62477627205317Q352.79238046535414 448.1105002983039 346.17631892951505 435.6926617233444Q339.56025739367595 423.2748231483849 339.56025739367595 405.1569930963948Q339.56025739367595 386.63202079604537 346.4816756157845 374.4177533452655Q353.4030938378931 362.20348589448565 365.1084334782238 356.0963521690957Q376.8137731185545 349.9892184437058 391.4708940594903 349.9892184437058Q406.5351572487855 349.9892184437058 418.342282451206 356.29992329327536Q430.14940765362655 362.610628142845 436.9690403136453 375.02846671780446Q443.788672973664 387.446305292764 443.788672973664 405.9712775931134Q443.788672973664 424.2926787692832 436.9690403136453 436.60873178215286Q430.14940765362655 448.92478479502256 418.342282451206 455.0319185204125Q406.5351572487855 461.1390522458024 391.67446518367 461.1390522458024ZM392.48874968038865 443.63193556635133Q401.6494502684735 443.63193556635133 408.16372624222276 439.3569419585784Q414.678002215972 435.0819483508054 418.13871132702633 426.7355322594392Q421.59942043808064 418.389116168073 421.59942043808064 406.78556208983207Q421.59942043808064 394.7748657632319 417.9351402028467 386.12309298559614Q414.2708599676127 377.47132020796045 407.45122730759397 372.78918435182817Q400.6315946475752 368.1070484956959 390.8601806869513 368.1070484956959Q382.10662234722577 368.1070484956959 375.4905608113867 372.280256541379Q368.8744992755476 376.4534645870621 365.4137901644933 384.69809511633855Q361.953081053439 392.9427256456149 361.953081053439 404.74985084803546Q361.953081053439 423.2748231483849 370.0959260206256 433.45337935736814Q378.23877098781213 443.63193556635133 392.48874968038865 443.63193556635133ZM493.4600272735021 458.4926276314668 456.4100826728032 352.8392141822211H481.04218869854253L507.5064348418989 440.3747975794767H510.56000170459384L537.2278189721299 352.8392141822211H561.0456405011506L523.9956959004517 458.4926276314668ZM603.9991477030597 461.1390522458024Q595.2455893633341 461.1390522458024 588.3241711412256 457.780128696838Q581.402752919117 454.42120514787354 577.4331159976135 447.7033580499446Q573.46347907611 440.98551095201566 573.46347907611 431.01052586721215Q573.46347907611 423.07125202420525 576.4152603767152 417.2694749850848Q579.3670416773203 411.46769794596435 585.3723898406204 407.4980610244609Q591.3777380039205 403.5284241029575 600.7420097161851 400.9837850507117Q610.1062814284496 398.43914599846585 622.9312622517684 396.6070058808489Q630.0562515980567 395.58915025995054 634.6366018920992 394.5712946390522Q639.2169521861416 393.55343901815394 641.354448990028 391.31415665217764Q643.4919457939145 389.0748742862013 643.4919457939145 384.5963095542487Q643.4919457939145 377.67489133214013 638.7080243756925 372.6873987897384Q633.9241029574704 367.69990624733657 623.3384045001278 367.69990624733657Q617.4348418989175 367.69990624733657 611.6330648597971 369.73561748913323Q605.8312878206767 371.77132873092984 601.6580797749937 376.3516790249723Q597.4848717293105 380.93202931901476 596.0598738600528 388.667732037842L576.1099036904457 382.3570271882724Q577.9420438080626 374.62132446944514 582.013466291656 368.61597630614506Q586.0848887752493 362.610628142845 592.1920225006393 358.43742009716186Q598.2991562260291 354.26421205147875 606.3402156311258 352.1267152475923Q614.3812750362226 349.9892184437058 623.9491178726668 349.9892184437058Q637.9955254410636 349.9892184437058 647.1562260291485 354.6713542998381Q656.3169266172334 359.35349015597035 660.8972769112759 369.0231185545044Q665.4776272053183 378.6927469530384 665.4776272053183 393.75701014233357V415.335549305378Q665.4776272053183 422.0533964033069 665.7829838915877 429.48374243586466Q666.0883405778573 436.9140884684224 666.5972683883065 444.3444345009801Q667.1061961987556 451.77478053353786 667.9204806954742 458.4926276314668H647.7669394016875Q647.1562260291485 452.3854939060769 646.6472982186993 445.8712179323276Q646.1383704082502 439.3569419585784 645.7312281598909 432.63909486064944H642.6776612971959Q639.8276655586806 440.3747975794767 634.6366018920992 446.88907355322596Q629.4455382255177 453.4033495269752 621.8116210687804 457.2712008863888Q614.177703912043 461.1390522458024 603.9991477030597 461.1390522458024ZM611.7348504218869 444.03907781471065Q616.0098440296599 444.03907781471065 620.3866231995227 442.614079945453Q624.7634023693854 441.18908207619535 629.1401815392483 438.23730077559026Q633.516960709111 435.2855194749851 637.2830265064348 430.60338361885283Q641.0490923037586 425.92124776272055 643.8990880422739 419.4069717889713L643.6955169180942 400.2712861160828L648.9883661467654 401.28914173698115Q645.5276570357112 404.34270859967614 640.3365933691298 405.9712775931134Q635.1455297025483 407.59984658655077 629.0383959771584 408.51591664535925Q622.9312622517684 409.43198670416774 616.9259140884683 410.55162788715586Q610.9205659251683 411.67126907014404 605.9330733827665 413.60519474985085Q600.9455808403648 415.53912042955767 597.9937995397596 418.9998295406119Q595.0420182391545 422.46053865166624 595.0420182391545 428.56767237705617Q595.0420182391545 436.09980397170375 599.7241540952867 440.06944089320723Q604.406289951419 444.03907781471065 611.7348504218869 444.03907781471065ZM730.0096735702718 460.7319099974431Q714.3346970084377 460.7319099974431 706.7007798517003 452.18192278189724Q699.0668626949629 443.63193556635133 699.0668626949629 425.92124776272055V370.75347311003156H683.3918861331288L683.7990283814881 352.6356430580414H693.9775845904713Q699.2704338191426 352.6356430580414 701.9168584334782 350.9052885025143Q704.5632830478138 349.17493394698715 705.1739964203529 344.6963692150345L707.2097076621495 329.02139265320034H720.4418307338276V352.6356430580414H749.5525014915196V371.1606153583909H720.4418307338276V425.31053439018154Q720.4418307338276 433.24980823318845 724.1061109690615 436.7105173442427Q727.7703912042956 440.171226455297 734.8953805505838 440.171226455297Q738.7632319099974 440.171226455297 742.7328688315008 439.25515639648853Q746.7025057530043 438.33908633768004 750.3667859882382 435.69266172334443V457.06762976220915Q744.2596522628484 459.1033410040058 739.1703741583567 459.91762550072445Q734.0810960538652 460.7319099974431 730.0096735702718 460.7319099974431ZM818.9702548367851 461.1390522458024Q806.3488451376459 461.1390522458024 796.5774311770219 457.3729864484786Q786.8060172163981 453.60692065115484 780.0881701184692 446.5837168669564Q773.3703230205404 439.560513082758 769.9096139094861 429.68731356004434Q766.4489047984317 419.8141140373306 766.4489047984317 407.3962754623711Q766.4489047984317 394.9784368874116 769.9096139094861 384.49452399215886Q773.3703230205404 374.01061109690613 779.7828134321998 366.2749083780789Q786.1953038438592 358.5392056592517 795.6613611182136 354.26421205147875Q805.127418392568 349.9892184437058 817.1381147191681 349.9892184437058Q828.3345265490497 349.9892184437058 837.1898704508651 353.65349867893974Q846.0452143526804 357.3177789141737 852.1523480780704 364.7481249467314Q858.2594818034603 372.17847097928916 861.3130486661553 383.27309724708084Q864.3666155288502 394.3677235148726 863.5523310321315 409.22841557998805L780.6988834910082 409.83912895252706V395.9962925083099L850.523779084633 395.3855791357709L842.7880763658058 403.9355663513168Q844.0095031108838 391.72129890053696 840.7523651240092 383.78202505753006Q837.4952271371345 375.84275121452316 831.3880934117446 371.9748998551095Q825.2809596863547 368.1070484956959 817.3416858433478 368.1070484956959Q808.3845563794425 368.1070484956959 801.7684948436034 372.6873987897384Q795.1524333077643 377.2677490837808 791.4881530725304 386.02130742350636Q787.8238728372964 394.7748657632319 787.8238728372964 406.98913321401176Q787.8238728372964 425.31053439018154 795.9667178044831 434.57302054035625Q804.1095627716696 443.83550669053096 819.1738259609648 443.83550669053096Q825.4845308105344 443.83550669053096 829.9630955424869 442.30872325918347Q834.4416602744395 440.781939827836 837.4952271371345 438.23730077559026Q840.5487939998295 435.69266172334443 842.4827196795363 432.13016705020027Q844.4166453592431 428.56767237705617 845.638072104321 424.69982101764253L864.9773289013892 429.1783857495952Q863.1451887837723 436.71051734424276 859.3791229864485 442.51229438336316Q855.6130571891247 448.3140714224836 849.9130657120941 452.4872794681667Q844.2130742350635 456.66048751384983 836.579157078326 458.8997698798261Q828.9452399215886 461.1390522458024 818.9702548367851 461.1390522458024ZM892.8665729140032 460.9354811216228Q885.3344413193556 460.9354811216228 881.5683755220318 457.67834313474816Q877.802309724708 454.42120514787354 877.802309724708 447.49978692576497Q877.802309724708 440.3747975794767 881.6701610841217 437.1176595926021Q885.5380124435353 433.86052160572746 892.8665729140032 433.86052160572746Q900.6022756328305 433.86052160572746 904.4701269922441 437.1176595926021Q908.3379783516576 440.3747975794767 908.3379783516576 447.49978692576497Q908.3379783516576 460.9354811216228 892.8665729140032 460.9354811216228ZM978.3664450694621 458.4926276314668V352.6356430580414H1000.3521264808658V458.4926276314668ZM989.3592857751639 334.92495525441063Q982.2342964288757 334.92495525441063 978.5700161936418 331.9731739538055Q974.9057359584078 329.02139265320034 974.9057359584078 323.1178300519901Q974.9057359584078 317.4178385749595 978.5700161936418 314.36427171226455Q982.2342964288757 311.31070484956956 989.3592857751639 311.31070484956956Q996.6878462456318 311.31070484956956 1000.3521264808658 314.36427171226455Q1004.0164067160998 317.4178385749595 1004.0164067160998 323.1178300519901Q1004.0164067160998 329.02139265320034 1000.3521264808658 331.9731739538055Q996.6878462456318 334.92495525441063 989.3592857751639 334.92495525441063ZM1031.0913662319952 458.4926276314668V392.1284411488963V352.6356430580414H1049.8199096565243L1048.5984829114464 385.61416517514704H1052.2627631466803Q1054.9091877610158 373.60346884854687 1059.4895380550583 365.76598056762975Q1064.0698883491007 357.9284922867127 1070.6859498849399 353.9588553652093Q1077.3020114207789 349.9892184437058 1086.0555697605046 349.9892184437058Q1095.8269837211283 349.9892184437058 1102.2394741327876 354.6713542998381Q1108.651964544447 359.35349015597035 1112.0108880934117 367.29276399897725Q1115.3698116423761 375.23203784198415 1115.5733827665558 385.20702292678766H1118.8305207534304Q1121.4769453677661 373.60346884854687 1126.2608667859881 365.76598056762975Q1131.0447882042101 357.9284922867127 1138.1697775504986 353.9588553652093Q1145.2947668967868 349.9892184437058 1154.0483252365123 349.9892184437058Q1162.3947413278786 349.9892184437058 1168.7054461774483 353.34814199267026Q1175.0161510270177 356.70706554163473 1179.2911446347907 363.221341515384Q1183.5661382425635 369.73561748913323 1185.70363504645 379.40524588766726Q1187.8411318503365 389.0748742862013 1187.8411318503365 401.6962839853405V458.4926276314668H1165.6518793147532V404.5462797238558Q1165.6518793147532 392.73915452143524 1163.6161680729565 385.003451802608Q1161.5804568311598 377.2677490837808 1157.305463223387 373.3998977243672Q1153.030469615614 369.53204636495354 1146.5161936418647 369.53204636495354Q1139.1876331713968 369.53204636495354 1133.589427256456 374.51953890735535Q1127.9912213415153 379.5070314497571 1124.530512230461 388.26058978948265Q1121.0698031194067 397.0141481292082 1120.255518622688 408.4141310832694V458.4926276314668H1098.473408335464V405.9712775931134Q1098.473408335464 393.75701014233357 1096.4376970936673 385.7159507372369Q1094.4019858518707 377.67489133214013 1090.126992244098 373.60346884854687Q1085.8519986363249 369.53204636495354 1079.3377226625755 369.53204636495354Q1071.6020199437482 369.53204636495354 1066.0038140288075 374.723110031535Q1060.4056081138667 379.91417369811643 1057.1484701269922 388.87130316202166Q1053.8913321401176 397.8284326259269 1053.0770476433988 409.0248444558084V458.4926276314668ZM1216.748231483849 491.87829199693175V405.9712775931134V352.6356430580414H1235.8839171567374L1235.2732037841984 380.52488707065544L1238.530341771073 380.72845819483507Q1240.7696241370493 371.1606153583909 1245.2481888690018 364.34098269837216Q1249.7267536009545 357.5213500383534 1256.7499573851528 353.7552842410296Q1263.7731611693514 349.9892184437058 1273.5445751299753 349.9892184437058Q1287.7945538225517 349.9892184437058 1297.6677533452653 357.11420778999405Q1307.540952867979 364.2391971362823 1312.5284454103808 376.8606068354215Q1317.5159379527827 389.48201653456067 1317.5159379527827 405.7677064689338Q1317.5159379527827 421.6462541549476 1312.7320165345604 434.16587829199693Q1307.9480951163384 446.68550242904627 1298.3802522798942 453.91227733742437Q1288.81240944345 461.1390522458024 1274.969572999233 461.1390522458024Q1264.1803034177105 461.1390522458024 1257.0553140714223 456.7622730759397Q1249.9303247251341 452.3854939060769 1245.4517599931814 445.15871899769877Q1240.973195261229 437.9319440893207 1238.530341771073 429.1783857495952H1234.866061535839Q1236.0874882809171 434.6748061024461 1236.9017727776359 440.4765831415665Q1237.7160572743544 446.27836018068695 1238.3267706468932 451.97835165771755Q1238.9374840194323 457.67834313474816 1238.9374840194323 462.76762123923976V491.87829199693175ZM1268.4552970254836 442.614079945453Q1276.80171311685 442.614079945453 1282.6034901559703 437.8301585272309Q1288.4052671950908 433.04623710900876 1291.4588340577857 424.69982101764253Q1294.5124009204806 416.3534049262763 1294.5124009204806 405.5641353447541Q1294.5124009204806 394.3677235148726 1291.3570484956958 386.224878547686Q1288.201696070911 378.08203358049946 1282.2981334697008 373.501683286457Q1276.3945708684905 368.9213329924146 1268.2517259013039 368.9213329924146Q1261.1267365550157 368.9213329924146 1255.6303162021647 372.1784709792892Q1250.1338958493138 375.43560896616384 1246.36783005199 380.6266726327452Q1242.6017642546663 385.81773629932667 1240.6678385749594 392.02665558680644Q1238.7339128952526 398.2355748742862 1238.7339128952526 404.13913747549645V407.19270433819145Q1238.7339128952526 411.2641268217847 1239.9553396403307 415.946262677917Q1241.1767663854087 420.62839853404927 1243.5178343134749 425.31053439018154Q1245.8589022415408 429.9926702463138 1249.421396914685 433.96230716781724Q1252.983891587829 437.9319440893207 1257.7678130060513 440.27301201738686Q1262.5517344242733 442.614079945453 1268.4552970254836 442.614079945453ZM1366.9837211284412 461.1390522458024Q1358.2301627887155 461.1390522458024 1351.308744566607 457.780128696838Q1344.3873263444984 454.42120514787354 1340.417689422995 447.7033580499446Q1336.4480525014915 440.98551095201566 1336.4480525014915 431.01052586721215Q1336.4480525014915 423.07125202420525 1339.3998338020965 417.2694749850848Q1342.3516151027018 411.46769794596435 1348.356963266002 407.4980610244609Q1354.362311429302 403.5284241029575 1363.7265831415666 400.9837850507117Q1373.0908548538312 398.43914599846585 1385.91583567715 396.6070058808489Q1393.0408250234382 395.58915025995054 1397.6211753174807 394.5712946390522Q1402.201525611523 393.55343901815394 1404.3390224154095 391.31415665217764Q1406.476519219296 389.0748742862013 1406.476519219296 384.5963095542487Q1406.476519219296 377.67489133214013 1401.692597801074 372.6873987897384Q1396.9086763828518 367.69990624733657 1386.3229779255091 367.69990624733657Q1380.419415324299 367.69990624733657 1374.6176382851786 369.73561748913323Q1368.8158612460581 371.77132873092984 1364.642653200375 376.3516790249723Q1360.4694451546918 380.93202931901476 1359.0444472854342 388.667732037842L1339.0944771158272 382.3570271882724Q1340.9266172334442 374.62132446944514 1344.9980397170375 368.61597630614506Q1349.0694622006306 362.610628142845 1355.1765959260206 358.43742009716186Q1361.2837296514106 354.26421205147875 1369.3247890565071 352.1267152475923Q1377.365848461604 349.9892184437058 1386.9336912980482 349.9892184437058Q1400.9800988664451 349.9892184437058 1410.14079945453 354.6713542998381Q1419.3015000426149 359.35349015597035 1423.8818503366574 369.0231185545044Q1428.4622006306997 378.6927469530384 1428.4622006306997 393.75701014233357V415.335549305378Q1428.4622006306997 422.0533964033069 1428.7675573169693 429.48374243586466Q1429.0729140032388 436.9140884684224 1429.5818418136878 444.3444345009801Q1430.090769624137 451.77478053353786 1430.9050541208558 458.4926276314668H1410.7515128270688Q1410.14079945453 452.3854939060769 1409.6318716440808 445.8712179323276Q1409.1229438336316 439.3569419585784 1408.7158015852724 432.63909486064944H1405.6622347225773Q1402.812238984062 440.3747975794767 1397.6211753174807 446.88907355322596Q1392.430111650899 453.4033495269752 1384.7961944941617 457.2712008863888Q1377.1622773374243 461.1390522458024 1366.9837211284412 461.1390522458024ZM1374.7194238472684 444.03907781471065Q1378.9944174550412 444.03907781471065 1383.371196624904 442.614079945453Q1387.747975794767 441.18908207619535 1392.1247549646296 438.23730077559026Q1396.5015341344924 435.2855194749851 1400.2675999318162 430.60338361885283Q1404.03366572914 425.92124776272055 1406.8836614676552 419.4069717889713L1406.6800903434757 400.2712861160828L1411.972939572147 401.28914173698115Q1408.5122304610927 404.34270859967614 1403.321166794511 405.9712775931134Q1398.1301031279297 407.59984658655077 1392.0229694025397 408.51591664535925Q1385.91583567715 409.43198670416774 1379.9104875138498 410.55162788715586Q1373.9051393505497 411.67126907014404 1368.9176468081478 413.60519474985085Q1363.930154265746 415.53912042955767 1360.978372965141 418.9998295406119Q1358.026591664536 422.46053865166624 1358.026591664536 428.56767237705617Q1358.026591664536 436.09980397170375 1362.7087275206682 440.06944089320723Q1367.3908633768006 444.03907781471065 1374.7194238472684 444.03907781471065ZM1504.3942299497144 461.1390522458024Q1490.7549646296768 461.1390522458024 1480.881765106963 456.8640586380295Q1471.0085655842495 452.58906503025656 1464.69786073468 445.056933435609Q1458.3871558851104 437.5248018409614 1455.3335890224153 427.7533878803375Q1452.2800221597204 417.98197391971365 1452.2800221597204 406.78556208983207Q1452.2800221597204 394.7748657632319 1455.537160146595 384.49452399215886Q1458.7942981334695 374.2141822210858 1465.206788545129 366.37669394016876Q1471.6192789567885 358.5392056592517 1481.1871217932326 354.26421205147875Q1490.7549646296768 349.9892184437058 1503.3763743288162 349.9892184437058Q1515.7942129037756 349.9892184437058 1525.0566990539503 354.1624264893889Q1534.319185204125 358.335634535072 1540.2227478053353 365.96955169180944Q1546.1263104065456 373.60346884854687 1547.9584505241626 383.78202505753006L1527.1941958578368 390.0927299070996Q1526.5834824852977 384.1891673058894 1523.7334867467825 379.0998892013978Q1520.8834910082671 374.01061109690613 1515.590641779596 371.058829796301Q1510.2977925509247 368.1070484956959 1502.765660956277 368.1070484956959Q1495.6406716099889 368.1070484956959 1490.3478223813177 370.8552586721214Q1485.0549731526462 373.60346884854687 1481.594264041592 378.79453251512825Q1478.1335549305377 383.9855961817097 1476.4032003750106 390.90701440381827Q1474.6728458194834 397.8284326259269 1474.6728458194834 406.1748487172931Q1474.6728458194834 417.57483167135433 1477.8281982442682 426.0230333248104Q1480.983550669053 434.4712349782664 1487.701397766982 439.0515852723089Q1494.4192448649108 443.63193556635133 1504.597801073894 443.63193556635133Q1513.1477882894399 443.63193556635133 1518.6442086422908 440.57836870365634Q1524.140628995142 437.5248018409614 1527.1941958578368 432.33373817437996Q1530.2477627205317 427.1426745077985 1531.2656183414301 420.22125628568995L1551.0120173868575 424.9033921418222Q1549.7905906417795 433.24980823318845 1546.1263104065456 440.06944089320723Q1542.4620301713117 446.88907355322596 1536.5584675701014 451.57120940935823Q1530.654904968891 456.2533452654905 1522.6138455637943 458.6961987556465Q1514.5727861586977 461.1390522458024 1504.3942299497144 461.1390522458024ZM1605.9762209153669 460.7319099974431Q1590.3012443535326 460.7319099974431 1582.6673271967952 452.18192278189724Q1575.033410040058 443.63193556635133 1575.033410040058 425.92124776272055V370.75347311003156H1559.3584334782238L1559.7655757265832 352.6356430580414H1569.9441319355662Q1575.2369811642377 352.6356430580414 1577.8834057785734 350.9052885025143Q1580.529830392909 349.17493394698715 1581.1405437654478 344.6963692150345L1583.1762550072444 329.02139265320034H1596.4083780789226V352.6356430580414H1625.5190488366147V371.1606153583909H1596.4083780789226V425.31053439018154Q1596.4083780789226 433.24980823318845 1600.0726583141566 436.7105173442427Q1603.7369385493905 440.171226455297 1610.861927895679 440.171226455297Q1614.7297792550924 440.171226455297 1618.6994161765958 439.25515639648853Q1622.6690530980993 438.33908633768004 1626.3333333333333 435.69266172334443V457.06762976220915Q1620.2261996079433 459.1033410040058 1615.1369215034517 459.91762550072445Q1610.0476433989602 460.7319099974431 1605.9762209153669 460.7319099974431ZM1652.7975794766896 460.9354811216228Q1645.265447882042 460.9354811216228 1641.4993820847185 457.67834313474816Q1637.7333162873947 454.42120514787354 1637.7333162873947 447.49978692576497Q1637.7333162873947 440.3747975794767 1641.6011676468083 437.1176595926021Q1645.4690190062217 433.86052160572746 1652.7975794766896 433.86052160572746Q1660.533282195517 433.86052160572746 1664.4011335549305 437.1176595926021Q1668.2689849143442 440.3747975794767 1668.2689849143442 447.49978692576497Q1668.2689849143442 460.9354811216228 1652.7975794766896 460.9354811216228ZM1738.2974516321487 458.4926276314668V352.6356430580414H1760.2831330435524V458.4926276314668ZM1749.2902923378506 334.92495525441063Q1742.1653029915624 334.92495525441063 1738.5010227563284 331.9731739538055Q1734.8367425210945 329.02139265320034 1734.8367425210945 323.1178300519901Q1734.8367425210945 317.4178385749595 1738.5010227563284 314.36427171226455Q1742.1653029915624 311.31070484956956 1749.2902923378506 311.31070484956956Q1756.6188528083185 311.31070484956956 1760.2831330435524 314.36427171226455Q1763.9474132787864 317.4178385749595 1763.9474132787864 323.1178300519901Q1763.9474132787864 329.02139265320034 1760.2831330435524 331.9731739538055Q1756.6188528083185 334.92495525441063 1749.2902923378506 334.92495525441063ZM1791.0223727946818 458.4926276314668V393.34986789397425V352.6356430580414H1810.1580584675703L1808.9366317224922 385.61416517514704H1812.3973408335464Q1815.2473365720618 373.3998977243672 1820.0312579902838 365.56240944345006Q1824.815179408506 357.724921162533 1832.2455254410638 353.85706980311943Q1839.6758714736216 349.9892184437058 1849.650856558425 349.9892184437058Q1867.3615443620558 349.9892184437058 1876.6240305122305 362.610628142845Q1885.8865166624053 375.23203784198415 1885.8865166624053 401.0855706128015V458.4926276314668H1863.4936930026422V403.3248529787778Q1863.4936930026422 385.61416517514704 1858.200843773971 377.36953464587066Q1852.9079945452997 369.1249041165942 1842.322296087957 369.1249041165942Q1833.1615954998722 369.1249041165942 1826.7491050882127 374.9266811557146Q1820.3366146765534 380.72845819483507 1816.8759055654991 390.0927299070996Q1813.4151964544449 399.4570016193642 1813.0080542060855 410.4498423250661V458.4926276314668ZM1955.100698883491 461.1390522458024Q1944.1078581777892 461.1390522458024 1935.5578709622432 458.8997698798261Q1927.0078837466974 456.66048751384983 1921.0025355833973 452.4872794681667Q1914.9971874200974 448.3140714224836 1911.7400494332228 442.4105088212733Q1908.482911446348 436.50694622006307 1907.8721980738092 429.5855279979545L1925.7864570016195 423.6819653967442Q1925.7864570016195 429.5855279979545 1929.4507372368535 434.2676638540868Q1933.1150174720874 438.94979971021905 1939.934650132106 441.4944387624648Q1946.754282792125 444.03907781471065 1956.3221256285692 444.03907781471065Q1967.5185374584507 444.03907781471065 1973.6256711838405 440.3747975794767Q1979.7328049092305 436.71051734424276 1979.7328049092305 430.19624137049345Q1979.7328049092305 425.31053439018154 1976.373881360266 422.46053865166624Q1973.0149578113017 419.61054291315094 1966.8060385238218 417.77840279553396Q1960.597119236342 415.946262677917 1952.250703144976 414.31769368447965Q1944.7185715503283 412.68912469104237 1937.2882255177706 410.55162788715586Q1929.8578794852128 408.4141310832694 1923.648960197733 404.9534219722151Q1917.4400409102532 401.49271286116084 1913.6739751129294 395.8945069462201Q1909.9079093156056 390.2963010312793 1909.9079093156056 381.7463138157334Q1909.9079093156056 371.9748998551095 1914.9971874200974 364.9516960709111Q1920.086465524589 357.9284922867127 1929.756093923123 353.9588553652093Q1939.425722321657 349.9892184437058 1952.861416517515 349.9892184437058Q1965.8899684650135 349.9892184437058 1975.3560257393679 353.85706980311943Q1984.822083013722 357.724921162533 1990.5220744907526 364.6463393846416Q1996.2220659677832 371.5677576067502 1997.4434927128614 380.93202931901476L1978.7149492883323 386.4284496718657Q1978.3078070399729 380.1177448222961 1974.9488834910085 375.84275121452316Q1971.589959942044 371.5677576067502 1965.8899684650135 369.4302608028637Q1960.1899769879828 367.29276399897725 1952.4542742691556 367.29276399897725Q1942.2757180601723 367.29276399897725 1936.4739410210518 370.9570442342112Q1930.6721639819314 374.62132446944514 1930.6721639819314 380.93202931901476Q1930.6721639819314 385.81773629932667 1934.2346586550757 388.7695175999318Q1937.7971533282198 391.72129890053696 1944.0060726156994 393.4516534560641Q1950.2149919031792 395.1820080115912 1958.1542657461862 396.81057700502856Q1966.2971107133726 398.43914599846585 1973.8292423080202 400.4748572402625Q1981.3613739026678 402.51056848205917 1987.366722065968 405.8694920310236Q1993.372070229268 409.22841557998805 1996.9345649024121 414.8266214949288Q2000.4970595755562 420.4248274098696 2000.4970595755562 428.9748146254155Q2000.4970595755562 439.3569419585784 1994.8988536606155 446.5837168669565Q1989.3006477456747 453.8104917753345 1979.1220915366916 457.4747720105685Q1968.9435353277083 461.1390522458024 1955.100698883491 461.1390522458024ZM2023.704167732038 491.87829199693175V405.9712775931134V352.6356430580414H2042.8398534049265L2042.2291400323875 380.52488707065544L2045.486278019262 380.72845819483507Q2047.7255603852384 371.1606153583909 2052.204125117191 364.34098269837216Q2056.6826898491436 357.5213500383534 2063.705893633342 353.7552842410296Q2070.7290974175403 349.9892184437058 2080.5005113781644 349.9892184437058Q2094.750490070741 349.9892184437058 2104.6236895934544 357.11420778999405Q2114.4968891161684 364.2391971362823 2119.48438165857 376.8606068354215Q2124.471874200972 389.48201653456067 2124.471874200972 405.7677064689338Q2124.471874200972 421.6462541549476 2119.6879527827496 434.16587829199693Q2114.904031364528 446.68550242904627 2105.3361885280838 453.91227733742437Q2095.7683456916393 461.1390522458024 2081.925509247422 461.1390522458024Q2071.1362396658997 461.1390522458024 2064.0112503196115 456.7622730759397Q2056.8862609733233 452.3854939060769 2052.4076962413706 445.15871899769877Q2047.929131509418 437.9319440893207 2045.486278019262 429.1783857495952H2041.821997784028Q2043.0434245291062 434.6748061024461 2043.857709025825 440.4765831415665Q2044.6719935225435 446.27836018068695 2045.2827068950824 451.97835165771755Q2045.8934202676214 457.67834313474816 2045.8934202676214 462.76762123923976V491.87829199693175ZM2075.4112332736727 442.614079945453Q2083.757649365039 442.614079945453 2089.5594264041592 437.8301585272309Q2095.36120344328 433.04623710900876 2098.414770305975 424.69982101764253Q2101.4683371686697 416.3534049262763 2101.4683371686697 405.5641353447541Q2101.4683371686697 394.3677235148726 2098.312984743885 386.224878547686Q2095.1576323191002 378.08203358049946 2089.25406971789 373.501683286457Q2083.3505071166796 368.9213329924146 2075.207662149493 368.9213329924146Q2068.082672803205 368.9213329924146 2062.5862524503536 372.1784709792892Q2057.089832097503 375.43560896616384 2053.323766300179 380.6266726327452Q2049.5577005028554 385.81773629932667 2047.6237748231486 392.02665558680644Q2045.6898491434417 398.2355748742862 2045.6898491434417 404.13913747549645V407.19270433819145Q2045.6898491434417 411.2641268217847 2046.9112758885196 415.946262677917Q2048.1327026335975 420.62839853404927 2050.4737705616635 425.31053439018154Q2052.81483848973 429.9926702463138 2056.377333162874 433.96230716781724Q2059.939827836018 437.9319440893207 2064.7237492542404 440.27301201738686Q2069.5076706724626 442.614079945453 2075.4112332736727 442.614079945453ZM2149.5111224750704 458.4926276314668V352.6356430580414H2171.496803886474V458.4926276314668ZM2160.503963180772 334.92495525441063Q2153.378973834484 334.92495525441063 2149.71469359925 331.9731739538055Q2146.050413364016 329.02139265320034 2146.050413364016 323.1178300519901Q2146.050413364016 317.4178385749595 2149.71469359925 314.36427171226455Q2153.378973834484 311.31070484956956 2160.503963180772 311.31070484956956Q2167.83252365124 311.31070484956956 2171.496803886474 314.36427171226455Q2175.161084121708 317.4178385749595 2175.161084121708 323.1178300519901Q2175.161084121708 329.02139265320034 2171.496803886474 331.9731739538055Q2167.83252365124 334.92495525441063 2160.503963180772 334.92495525441063ZM2202.2360436376034 458.4926276314668V403.3248529787778V352.6356430580414H2221.371729310492L2220.3538736895935 389.278445410381H2223.8145828006477Q2225.646722918265 376.86060683542144 2229.5145742776785 368.1070484956959Q2233.382425637092 359.35349015597035 2240.100272735021 354.7731398619279Q2246.81811983295 350.1927895678855 2256.793104917753 350.1927895678855Q2258.82881615955 350.1927895678855 2261.271669649706 350.3963606920651Q2263.7145231398617 350.59993181624475 2266.768090002557 351.6177874371431L2265.7502343816586 374.82489559362483Q2262.6966675189637 373.60346884854687 2259.439529532089 373.0945410380977Q2256.182391545214 372.58561322764854 2253.5359669308787 372.58561322764854Q2245.393121963692 372.58561322764854 2239.693130486661 377.16596352169097Q2233.993139009631 381.7463138157334 2230.227073212307 389.78737322083015Q2226.461007414983 397.8284326259269 2224.425296173187 408.4141310832694V458.4926276314668ZM2332.5215631125884 461.1390522458024Q2319.9001534134495 461.1390522458024 2310.1287394528254 457.3729864484786Q2300.3573254922017 453.60692065115484 2293.639478394273 446.5837168669564Q2286.921631296344 439.560513082758 2283.4609221852897 429.68731356004434Q2280.000213074235 419.8141140373306 2280.000213074235 407.3962754623711Q2280.000213074235 394.9784368874116 2283.4609221852897 384.49452399215886Q2286.921631296344 374.01061109690613 2293.3341217080033 366.2749083780789Q2299.7466121196626 358.5392056592517 2309.212669394017 354.26421205147875Q2318.6787266683714 349.9892184437058 2330.6894229949717 349.9892184437058Q2341.885834824853 349.9892184437058 2350.7411787266683 353.65349867893974Q2359.596522628484 357.3177789141737 2365.703656353874 364.7481249467314Q2371.810790079264 372.17847097928916 2374.8643569419587 383.27309724708084Q2377.9179238046536 394.3677235148726 2377.1036393079353 409.22841557998805L2294.250191766812 409.83912895252706V395.9962925083099L2364.0750873604366 395.3855791357709L2356.3393846416093 403.9355663513168Q2357.5608113866874 391.72129890053696 2354.303673399813 383.78202505753006Q2351.0465354129383 375.84275121452316 2344.9394016875485 371.9748998551095Q2338.8322679621583 368.1070484956959 2330.8929941191514 368.1070484956959Q2321.935864655246 368.1070484956959 2315.319803119407 372.6873987897384Q2308.703741583568 377.2677490837808 2305.039461348334 386.02130742350636Q2301.3751811131 394.7748657632319 2301.3751811131 406.98913321401176Q2301.3751811131 425.31053439018154 2309.5180260802863 434.57302054035625Q2317.660871047473 443.83550669053096 2332.725134236768 443.83550669053096Q2339.035839086338 443.83550669053096 2343.5144038182907 442.30872325918347Q2347.992968550243 440.781939827836 2351.0465354129383 438.23730077559026Q2354.100102275633 435.69266172334443 2356.03402795534 432.13016705020027Q2357.967953635047 428.56767237705617 2359.1893803801245 424.69982101764253L2378.5286371771926 429.1783857495952Q2376.696497059576 436.71051734424276 2372.930431262252 442.51229438336316Q2369.1643654649283 448.3140714224836 2363.4643739878975 452.4872794681667Q2357.764382510867 456.66048751384983 2350.1304653541297 458.8997698798261Q2342.4965481973923 461.1390522458024 2332.5215631125884 461.1390522458024ZM2406.417881189807 460.9354811216228Q2398.8857495951593 460.9354811216228 2395.1196837978355 457.67834313474816Q2391.3536180005117 454.42120514787354 2391.3536180005117 447.49978692576497Q2391.3536180005117 440.3747975794767 2395.2214693599253 437.1176595926021Q2399.089320719339 433.86052160572746 2406.417881189807 433.86052160572746Q2414.153583908634 433.86052160572746 2418.0214352680478 437.1176595926021Q2421.8892866274614 440.3747975794767 2421.8892866274614 447.49978692576497Q2421.8892866274614 460.9354811216228 2406.417881189807 460.9354811216228Z" fill="#0A1340"/></svg>